<?xml version="1.0" encoding="iso-8859-1"?>
<!-- Generator: Adobe Illustrator 21.0.0, SVG Export Plug-In . SVG Version: 6.00 Build 0)  -->
<svg version="1.1" id="Capa_1" xmlns="http://www.w3.org/2000/svg" xmlns:xlink="http://www.w3.org/1999/xlink" x="0px" y="0px"
	 viewBox="0 0 512 512" style="enable-background:new 0 0 512 512;" xml:space="preserve">
<linearGradient id="SVGID_1_" gradientUnits="userSpaceOnUse" x1="437.0193" y1="76.9807" x2="74.9807" y2="439.0193" gradientTransform="matrix(1 0 0 -1 0 514)">
	<stop  offset="0" style="stop-color:#9A0011"/>
	<stop  offset="1" style="stop-color:#FF2F57"/>
</linearGradient>
<circle style="fill:url(#SVGID_1_);" cx="256" cy="256" r="256"/>
<linearGradient id="SVGID_2_" gradientUnits="userSpaceOnUse" x1="64.051" y1="258" x2="447.948" y2="258" gradientTransform="matrix(1 0 0 -1 0 514)">
	<stop  offset="0" style="stop-color:#00EFD1"/>
	<stop  offset="1" style="stop-color:#006759"/>
</linearGradient>
<path style="fill:url(#SVGID_2_);" d="M402.951,372.481H109.049c-24.749,0-44.998-20.249-44.998-44.998V184.517
	c0-24.749,20.249-44.998,44.998-44.998H402.95c24.749,0,44.998,20.249,44.998,44.998v142.967
	C447.948,352.232,427.699,372.481,402.951,372.481z"/>
<g>
	
		<linearGradient id="SVGID_3_" gradientUnits="userSpaceOnUse" x1="117.67" y1="290.758" x2="393.67" y2="290.758" gradientTransform="matrix(1 0 0 -1 0 514)">
		<stop  offset="0" style="stop-color:#FFFFFF"/>
		<stop  offset="1" style="stop-color:#FFEC98"/>
	</linearGradient>
	<path style="fill:url(#SVGID_3_);" d="M178.166,253.294v20.509h-71.071V172.681h69.789v20.509h-46.431v19.655h39.879v18.943
		h-39.879v21.506L178.166,253.294L178.166,253.294z"/>
	
		<linearGradient id="SVGID_4_" gradientUnits="userSpaceOnUse" x1="117.67" y1="290.758" x2="393.67" y2="290.758" gradientTransform="matrix(1 0 0 -1 0 514)">
		<stop  offset="0" style="stop-color:#FFFFFF"/>
		<stop  offset="1" style="stop-color:#FFEC98"/>
	</linearGradient>
	<path style="fill:url(#SVGID_4_);" d="M207.079,172.681l22.076,34.894l22.076-34.894h25.209l-35.037,51.273l33.897,49.849h-25.209
		l-20.937-33.47l-20.937,33.47h-25.352l33.897-49.849l-35.037-51.273L207.079,172.681L207.079,172.681z"/>
	
		<linearGradient id="SVGID_5_" gradientUnits="userSpaceOnUse" x1="117.67" y1="290.758" x2="393.67" y2="290.758" gradientTransform="matrix(1 0 0 -1 0 514)">
		<stop  offset="0" style="stop-color:#FFFFFF"/>
		<stop  offset="1" style="stop-color:#FFEC98"/>
	</linearGradient>
	<path style="fill:url(#SVGID_5_);" d="M285.126,273.803V172.681h23.358v101.122H285.126z"/>
	
		<linearGradient id="SVGID_6_" gradientUnits="userSpaceOnUse" x1="117.67" y1="290.758" x2="393.67" y2="290.758" gradientTransform="matrix(1 0 0 -1 0 514)">
		<stop  offset="0" style="stop-color:#FFFFFF"/>
		<stop  offset="1" style="stop-color:#FFEC98"/>
	</linearGradient>
	<path style="fill:url(#SVGID_6_);" d="M404.904,193.19H374.14v80.613h-23.358V193.19h-30.907v-20.509h85.029V193.19z"/>
	
		<linearGradient id="SVGID_7_" gradientUnits="userSpaceOnUse" x1="117.67" y1="198.3335" x2="393.67" y2="198.3335" gradientTransform="matrix(1 0 0 -1 0 514)">
		<stop  offset="0" style="stop-color:#FFFFFF"/>
		<stop  offset="1" style="stop-color:#FFEC98"/>
	</linearGradient>
	<polygon style="fill:url(#SVGID_7_);" points="372.826,315.666 318.06,288.342 318.06,304.678 137.076,304.678 137.076,326.654 
		318.06,326.654 318.06,342.991 	"/>
</g>
<g>
</g>
<g>
</g>
<g>
</g>
<g>
</g>
<g>
</g>
<g>
</g>
<g>
</g>
<g>
</g>
<g>
</g>
<g>
</g>
<g>
</g>
<g>
</g>
<g>
</g>
<g>
</g>
<g>
</g>
</svg>
